<svg width="210" height="41" viewBox="0 0 210 41" fill="none" xmlns="http://www.w3.org/2000/svg">
<path d="M34.1324 2.86798L34.1326 2.86821L35.0665 3.8759C36.1297 5.02442 36.0323 7.18889 34.6283 8.70213L34.6281 8.70232L15.4411 29.4042L9.30538 31.8258L9.30457 31.8261C9.03616 31.9326 8.80304 31.9069 8.63541 31.8185C8.46988 31.7312 8.32948 31.5629 8.27841 31.3024C8.24204 31.0968 8.25991 30.8845 8.32903 30.6908L8.32906 30.6908L8.33111 30.6849L10.6243 23.9927L29.7627 3.34161C31.1606 1.83491 33.1022 1.75515 34.1324 2.86798ZM14.8897 5.09541C15.0264 5.09541 15.1629 5.12442 15.2916 5.18193C15.4204 5.23951 15.54 5.32504 15.6426 5.43565C15.7451 5.54634 15.8284 5.67977 15.8857 5.82919C15.9431 5.97865 15.973 6.14001 15.973 6.30374C15.973 6.46748 15.9431 6.62883 15.8857 6.77829C15.8284 6.92772 15.7451 7.06115 15.6426 7.17183C15.54 7.28244 15.4204 7.36798 15.2916 7.42555C15.1629 7.48307 15.0264 7.51208 14.8897 7.51208H8.55636C7.57111 7.51208 6.63466 7.93471 5.95047 8.67291C5.26747 9.40983 4.88969 10.4017 4.88969 11.4287V31.9287C4.88969 32.9558 5.26747 33.9476 5.95047 34.6846C6.63466 35.4228 7.57111 35.8454 8.55636 35.8454H27.5564C28.5416 35.8454 29.4781 35.4228 30.1622 34.6846C30.8452 33.9476 31.223 32.9558 31.223 31.9287V25.0954C31.223 24.7632 31.3457 24.4515 31.5535 24.2273C31.7601 24.0044 32.0318 23.8871 32.3064 23.8871C32.5809 23.8871 32.8526 24.0044 33.0592 24.2273C33.267 24.4515 33.3897 24.7632 33.3897 25.0954V31.9287C33.3897 33.6202 32.7666 35.2354 31.668 36.4208C30.5706 37.6048 29.0907 38.2621 27.5564 38.2621H8.55636C7.02205 38.2621 5.54214 37.6048 4.44473 36.4208C3.34613 35.2354 2.72302 33.6202 2.72302 31.9287V11.4287C2.72302 9.7373 3.34613 8.12205 4.44473 6.93673C5.54214 5.75268 7.02205 5.09541 8.55636 5.09541H14.8897Z" fill="#484A47" stroke="#484A47"/>
<path d="M61.17 34.94C61.1467 34.9633 61.1233 35.01 61.1 35.08C61.1 35.15 61.0767 35.185 61.03 35.185C60.9833 35.1617 60.9483 35.115 60.925 35.045C60.925 34.975 60.9017 34.905 60.855 34.835C60.8317 34.835 60.8083 34.8233 60.785 34.8C60.7617 34.8 60.75 34.7883 60.75 34.765C60.75 34.765 60.7383 34.765 60.715 34.765C60.4817 34.5317 60.26 34.2867 60.05 34.03C59.84 33.7733 59.6067 33.5283 59.35 33.295C59.3267 33.2483 59.28 33.19 59.21 33.12C59.1633 33.0733 59.105 33.015 59.035 32.945C58.965 32.8983 58.895 32.8517 58.825 32.805C58.8017 32.805 58.7783 32.8167 58.755 32.84C58.755 32.8867 58.7433 32.9217 58.72 32.945C58.6267 33.085 58.545 33.1667 58.475 33.19C58.405 33.2133 58.3233 33.1783 58.23 33.085C58.2067 33.0617 58.1717 33.015 58.125 32.945C58.1017 32.8983 58.09 32.8983 58.09 32.945C58.0667 33.1783 58.0667 33.4117 58.09 33.645C58.1367 33.9017 58.1017 34.135 57.985 34.345C57.9383 34.4383 57.9033 34.415 57.88 34.275C57.88 34.1583 57.88 33.995 57.88 33.785C57.9033 33.575 57.9033 33.4117 57.88 33.295C57.8567 33.1317 57.8333 32.9683 57.81 32.805C57.81 32.665 57.81 32.5133 57.81 32.35H57.53C56.76 32.3267 56.0017 32.2567 55.255 32.14C55.0917 32.1167 54.9167 32.0933 54.73 32.07C54.5667 32.0467 54.4033 32.0233 54.24 32C53.89 31.93 53.6217 31.86 53.435 31.79C53.1317 31.6967 52.8283 31.5917 52.525 31.475C52.2217 31.3583 51.9183 31.23 51.615 31.09C51.3583 30.9733 51.1133 30.8567 50.88 30.74C50.6467 30.6 50.425 30.4483 50.215 30.285L49.69 29.865C49.5967 29.795 49.5033 29.725 49.41 29.655C49.34 29.585 49.27 29.515 49.2 29.445C49.1767 29.4217 49.1533 29.3983 49.13 29.375C49.13 29.3517 49.1067 29.3283 49.06 29.305C48.43 28.6283 47.9167 27.8583 47.52 26.995C47.1467 26.1083 46.9017 25.0933 46.785 23.95C46.7383 23.5533 46.715 23.145 46.715 22.725C46.715 22.305 46.715 21.885 46.715 21.465V9.845C46.715 9.635 46.7033 9.40167 46.68 9.145C46.68 8.865 46.6917 8.60833 46.715 8.375C46.7617 7.86167 47.0417 7.57 47.555 7.5H53.68C53.9133 7.5 54.1583 7.5 54.415 7.5C54.6717 7.47667 54.8933 7.535 55.08 7.675C55.1733 7.745 55.255 7.82667 55.325 7.92C55.3717 7.99 55.4067 8.07166 55.43 8.165C55.4533 8.235 55.465 8.32833 55.465 8.445V21.185C55.465 21.535 55.4767 21.9667 55.5 22.48C55.5467 22.97 55.64 23.4483 55.78 23.915C55.9433 24.3583 56.2 24.7083 56.55 24.965C56.62 24.9883 56.69 25.0233 56.76 25.07C56.83 25.0933 56.9 25.1167 56.97 25.14C57.0633 25.1867 57.145 25.21 57.215 25.21C57.495 25.28 57.775 25.315 58.055 25.315C58.3583 25.315 58.65 25.28 58.93 25.21L59.245 25.105C59.385 25.0583 59.49 25.0117 59.56 24.965C59.7467 24.825 59.8983 24.65 60.015 24.44C60.155 24.23 60.2717 24.0083 60.365 23.775L60.47 23.355C60.5633 22.9817 60.61 22.62 60.61 22.27C60.6333 21.8967 60.645 21.535 60.645 21.185V8.445C60.645 8.305 60.6567 8.2 60.68 8.13C60.7267 8.06 60.7733 7.97833 60.82 7.885C60.9367 7.69833 61.065 7.59333 61.205 7.57C61.3683 7.52333 61.52 7.5 61.66 7.5H68.59C68.8233 7.52333 69.01 7.62833 69.15 7.815C69.3133 7.97833 69.395 8.18833 69.395 8.445C69.4417 8.655 69.4533 8.87667 69.43 9.11C69.4067 9.32 69.395 9.51833 69.395 9.705V22.69C69.395 22.9 69.395 23.145 69.395 23.425C69.395 23.705 69.3717 23.9733 69.325 24.23C69.3017 24.4867 69.255 24.7433 69.185 25C69.1383 25.2333 69.0917 25.4667 69.045 25.7C68.9517 26.12 68.8467 26.505 68.73 26.855C68.6133 27.1817 68.4617 27.4383 68.275 27.625C68.205 27.7883 68.1117 27.9517 67.995 28.115C67.8317 28.4183 67.6333 28.6867 67.4 28.92C67.4 28.92 67.3883 28.9317 67.365 28.955C67.365 28.955 67.365 28.9667 67.365 28.99C67.295 29.0133 67.225 29.0717 67.155 29.165C67.085 29.2583 67.0383 29.3167 67.015 29.34L66.735 29.62C66.6417 29.7133 66.5717 29.7717 66.525 29.795L66.315 29.97C66.315 29.97 66.3033 29.9817 66.28 30.005C66.28 30.005 66.28 30.0167 66.28 30.04C66.21 30.18 66.1517 30.3317 66.105 30.495C66.0583 30.635 66.0117 30.7867 65.965 30.95C65.8717 31.1833 65.7667 31.405 65.65 31.615C65.5567 31.825 65.4283 32.0233 65.265 32.21L64.88 32.63C64.81 32.77 64.775 32.8167 64.775 32.77C64.7517 32.63 64.7283 32.4783 64.705 32.315C64.705 32.175 64.705 32.035 64.705 31.895L64.39 32.49C64.39 32.5133 64.3783 32.525 64.355 32.525C64.355 32.525 64.355 32.5367 64.355 32.56C64.3083 32.6067 64.25 32.6533 64.18 32.7C64.1333 32.77 64.075 32.8283 64.005 32.875C63.9583 33.015 63.9233 33.155 63.9 33.295C63.9 33.4583 63.8767 33.6217 63.83 33.785C63.8067 33.8783 63.795 33.9717 63.795 34.065C63.8183 34.1817 63.7833 34.2633 63.69 34.31C63.6433 34.3333 63.6083 34.2983 63.585 34.205C63.585 34.1117 63.585 34.03 63.585 33.96C63.5617 33.75 63.5383 33.54 63.515 33.33C63.515 33.1433 63.4917 32.9333 63.445 32.7C63.4217 32.6767 63.3983 32.6533 63.375 32.63C63.3517 32.6067 63.3283 32.5833 63.305 32.56C63.2817 32.56 63.2583 32.5367 63.235 32.49C63.2117 32.4433 63.2117 32.4433 63.235 32.49C63.2117 32.4433 63.1883 32.3967 63.165 32.35C63.1417 32.3267 63.1067 32.3033 63.06 32.28C63.0367 32.2567 63.0133 32.2333 62.99 32.21C62.99 32.1867 62.9667 32.1633 62.92 32.14C62.85 32.0933 62.7683 32.0933 62.675 32.14C62.5817 32.21 62.5 32.3033 62.43 32.42C62.36 32.56 62.3017 32.6883 62.255 32.805C62.1617 33.085 62.0567 33.365 61.94 33.645C61.8467 33.925 61.73 34.1933 61.59 34.45V34.485C61.5433 34.5783 61.485 34.6717 61.415 34.765C61.345 34.8583 61.2633 34.9167 61.17 34.94ZM95.0883 31.23C95.0649 31.3233 95.0299 31.405 94.9833 31.475C94.9599 31.545 94.9133 31.6267 94.8433 31.72C94.8899 31.6967 94.8549 31.7317 94.7383 31.825C94.6449 31.895 94.6099 31.9183 94.6333 31.895C94.6099 31.895 94.5866 31.9067 94.5633 31.93C94.5166 32.1633 94.4816 32.385 94.4583 32.595C94.4583 32.805 94.4466 33.0267 94.4233 33.26C94.3999 33.6333 94.3533 34.0417 94.2833 34.485C94.2366 34.9517 94.1899 35.3717 94.1433 35.745C94.1199 35.9783 94.0733 36.2583 94.0033 36.585C93.9566 36.935 93.9099 37.2267 93.8633 37.46C93.8399 37.53 93.8166 37.6 93.7933 37.67C93.7933 37.74 93.7699 37.7983 93.7233 37.845C93.7233 37.8683 93.6999 37.88 93.6533 37.88C93.6299 37.88 93.6183 37.8683 93.6183 37.845C93.5716 37.7983 93.5366 37.74 93.5133 37.67C93.5133 37.6233 93.5016 37.5767 93.4783 37.53C93.4083 37.32 93.3499 37.0517 93.3033 36.725C93.2566 36.4217 93.2099 36.1767 93.1633 35.99C93.0699 35.4533 92.9999 34.835 92.9533 34.135C92.9299 33.4583 92.8599 32.8633 92.7433 32.35C92.7199 32.4667 92.7083 32.5833 92.7083 32.7C92.7083 32.84 92.6849 32.9683 92.6383 33.085C92.6149 33.1317 92.5683 33.155 92.4983 33.155C92.4516 33.1783 92.4049 33.2133 92.3583 33.26C92.3349 33.26 92.2999 33.2717 92.2533 33.295C92.2299 33.3417 92.2183 33.3533 92.2183 33.33C92.1949 33.2133 92.1716 33.0967 92.1483 32.98C92.1483 32.8633 92.1366 32.7467 92.1133 32.63C92.1133 32.6533 92.1016 32.6767 92.0783 32.7C92.0549 32.7467 92.0316 32.7933 92.0083 32.84C91.9849 32.8867 91.9616 32.9333 91.9383 32.98C91.9383 32.98 91.9266 32.98 91.9033 32.98C91.9033 33.0033 91.9033 33.0267 91.9033 33.05C91.9033 33.05 91.8683 33.085 91.7983 33.155C91.7283 33.2483 91.6816 33.295 91.6583 33.295C91.6116 33.3417 91.5649 33.365 91.5183 33.365C91.4949 33.7383 91.4716 34.1 91.4483 34.45C91.4483 34.8233 91.4249 35.185 91.3783 35.535C91.3783 35.5583 91.3549 35.57 91.3083 35.57C91.2616 35.57 91.2266 35.5583 91.2033 35.535C91.1799 35.1383 91.1683 34.8583 91.1683 34.695C91.1683 34.555 91.1683 34.4383 91.1683 34.345C91.1683 34.275 91.1566 34.1583 91.1333 33.995C91.1099 33.8317 91.0516 33.5517 90.9583 33.155C90.8416 33.015 90.7249 32.8633 90.6083 32.7C90.5849 32.6767 90.5733 32.6533 90.5733 32.63C90.5733 32.6067 90.5616 32.5833 90.5383 32.56L90.3983 32.35C90.3749 32.3033 90.3633 32.2567 90.3633 32.21C90.3633 32.1867 90.3516 32.1633 90.3283 32.14C90.3283 32.21 90.3049 32.245 90.2583 32.245C90.2583 32.245 90.2116 32.2217 90.1183 32.175C90.0949 32.245 90.0599 32.315 90.0133 32.385C89.9666 32.455 89.9083 32.5133 89.8383 32.56C89.7916 32.6067 89.7566 32.63 89.7333 32.63C89.6866 32.6767 89.6633 32.7583 89.6633 32.875C89.6633 32.9917 89.6283 33.0383 89.5583 33.015C89.4883 32.9917 89.4533 32.9217 89.4533 32.805C89.4766 32.7117 89.4649 32.63 89.4183 32.56L89.2783 32.42L89.0683 32.175C89.0683 32.1983 89.0566 32.21 89.0333 32.21C89.0566 32.21 89.0099 32.175 88.8933 32.105C88.7999 32.0583 88.7533 32.035 88.7533 32.035C88.7533 32.035 88.6949 32.0583 88.5783 32.105C88.4849 32.175 88.3916 32.2333 88.2983 32.28C88.2049 32.35 88.1116 32.35 88.0183 32.28C87.9249 32.2333 87.8666 32.175 87.8433 32.105C87.8433 32.035 87.8199 31.9533 87.7733 31.86C87.6566 31.7667 87.5399 31.6617 87.4233 31.545C87.3299 31.4283 87.2366 31.3 87.1433 31.16C87.0499 30.9967 86.9566 30.8567 86.8633 30.74L86.6883 30.46C86.6416 30.39 86.5833 30.32 86.5133 30.25C86.4666 30.1567 86.4199 30.075 86.3733 30.005C86.3266 29.935 86.2799 29.865 86.2333 29.795C86.1866 29.725 86.1399 29.6433 86.0933 29.55L85.8833 29.235C85.6733 29.025 85.4633 28.7683 85.2533 28.465C85.0666 28.1617 84.8683 27.835 84.6583 27.485C84.4716 27.2283 84.2733 26.9367 84.0633 26.61C83.8533 26.26 83.6549 25.91 83.4683 25.56L82.0683 23.46C81.8816 23.2267 81.7183 22.9933 81.5783 22.76C81.5549 22.7133 81.5316 22.6667 81.5083 22.62C81.4849 22.5733 81.4499 22.5383 81.4033 22.515C81.3566 22.4217 81.3333 22.375 81.3333 22.375C81.2866 22.305 81.2633 22.27 81.2633 22.27C81.2633 22.2467 81.2633 22.2933 81.2633 22.41V30.355C81.2633 30.495 81.2633 30.6467 81.2633 30.81C81.2866 30.95 81.2866 31.09 81.2633 31.23C81.2633 31.1833 81.2516 31.2067 81.2283 31.3C81.2049 31.37 81.2049 31.3933 81.2283 31.37C81.2283 31.3933 81.2166 31.4167 81.1933 31.44C81.1933 31.4633 81.1816 31.475 81.1583 31.475C81.1583 31.475 81.1583 31.4867 81.1583 31.51C81.1583 31.5333 81.1466 31.545 81.1233 31.545C81.1233 31.545 81.1233 31.5567 81.1233 31.58C81.0066 31.72 80.8899 31.825 80.7733 31.895C80.7266 31.9417 80.6916 31.9883 80.6683 32.035C80.6216 32.0817 80.5983 32.1283 80.5983 32.175L80.4583 32.42C80.4349 32.49 80.3999 32.5483 80.3533 32.595C80.3299 32.665 80.2949 32.735 80.2483 32.805C80.0383 33.2717 79.8049 33.7383 79.5483 34.205L79.2333 34.905C79.2333 34.9283 79.2216 34.94 79.1983 34.94C79.1983 34.94 79.1983 34.9517 79.1983 34.975L79.0583 35.185L78.9533 35.29C78.9533 35.29 78.9416 35.29 78.9183 35.29C78.9183 35.29 78.9183 35.3017 78.9183 35.325C78.8949 35.325 78.8599 35.3483 78.8133 35.395C78.7899 35.8383 78.7666 36.2817 78.7433 36.725C78.7433 37.1683 78.7199 37.6233 78.6733 38.09C78.6499 38.16 78.6149 38.125 78.5683 37.985C78.5449 37.8683 78.5333 37.775 78.5333 37.705C78.4866 37.3083 78.4633 36.9 78.4633 36.48C78.4633 36.0833 78.4399 35.6867 78.3933 35.29C78.3466 35.2667 78.2999 35.2083 78.2533 35.115C78.2299 35.115 78.2066 35.1033 78.1833 35.08L77.9383 34.66C77.9149 34.59 77.8799 34.52 77.8333 34.45C77.8099 34.38 77.7866 34.2983 77.7633 34.205C77.7399 34.135 77.7166 34.065 77.6933 33.995C77.6699 33.925 77.6349 33.8433 77.5883 33.75L77.2733 32.805C77.2499 32.7583 77.2266 32.7 77.2033 32.63C77.2033 32.56 77.1916 32.5017 77.1683 32.455C77.1216 32.6883 77.0983 32.9217 77.0983 33.155C77.0983 33.3883 77.0749 33.6333 77.0283 33.89C77.0049 33.9133 76.9816 33.89 76.9583 33.82C76.9349 33.7733 76.9116 33.7383 76.8883 33.715C76.8416 33.6683 76.7949 33.5983 76.7483 33.505C76.6549 33.3417 76.5616 33.1783 76.4683 33.015C76.3983 32.8517 76.3049 32.7117 76.1883 32.595C76.1416 32.5483 76.1066 32.525 76.0833 32.525C76.0599 32.595 76.0016 32.6767 75.9083 32.77C75.8616 32.8167 75.7916 32.8517 75.6983 32.875C75.6283 32.9217 75.5583 32.9683 75.4883 33.015C75.4183 33.085 75.3599 33.155 75.3133 33.225C75.2666 33.3183 75.1966 33.3883 75.1033 33.435C75.0099 33.505 74.9049 33.5167 74.7883 33.47C74.6949 33.3767 74.6483 33.3533 74.6483 33.4C74.6249 33.6567 74.6483 34.065 74.7183 34.625C74.7883 35.185 74.8466 35.745 74.8933 36.305C74.9633 36.865 74.9749 37.285 74.9283 37.565C74.9049 37.8683 74.7649 37.8917 74.5083 37.635C74.1816 37.285 74.0183 36.8183 74.0183 36.235C74.0416 35.6517 74.1116 35.0683 74.2283 34.485C74.3683 33.9017 74.4266 33.435 74.4033 33.085L74.2633 32.875C74.2399 32.8283 74.2049 32.7583 74.1583 32.665C74.1349 32.595 74.1233 32.5833 74.1233 32.63C74.0766 32.8633 74.0649 33.0967 74.0883 33.33C74.1349 33.5633 74.0999 33.7733 73.9833 33.96C73.9133 34.0533 73.8783 34.03 73.8783 33.89C73.8783 33.7733 73.8899 33.61 73.9133 33.4C73.9366 33.2133 73.9366 33.0617 73.9133 32.945L73.6683 31.965C73.5749 31.9183 73.4933 31.8717 73.4233 31.825C73.1666 31.6383 73.0383 31.3817 73.0383 31.055V8.445C73.0383 8.35167 73.0616 8.235 73.1083 8.095C73.1783 7.885 73.2833 7.745 73.4233 7.675C73.4699 7.62833 73.5633 7.58167 73.7033 7.535C73.7733 7.51166 73.8783 7.5 74.0183 7.5H79.5133C79.8166 7.5 80.0616 7.54667 80.2483 7.64C80.4349 7.73333 80.5749 7.83833 80.6683 7.955C80.8549 8.11833 81.0066 8.31667 81.1233 8.55C81.2633 8.78333 81.3916 9.005 81.5083 9.215L81.6133 9.39L81.7533 9.6C82.0099 9.85667 82.2433 10.1833 82.4533 10.58C82.6633 10.9767 82.8733 11.3733 83.0833 11.77L83.1533 11.945L84.3783 13.94C84.4016 13.94 84.4133 13.9517 84.4133 13.975C84.7399 14.465 85.0549 14.9783 85.3583 15.515C85.6849 16.0283 85.9999 16.5417 86.3033 17.055L86.7233 17.755L86.7583 17.79L86.8633 17.72V9.39C86.8633 9.22667 86.8516 9.05167 86.8283 8.865C86.8283 8.67833 86.8399 8.50333 86.8633 8.34C86.8633 8.22333 86.8866 8.13 86.9333 8.06C86.9799 7.96667 87.0149 7.90833 87.0383 7.885C87.0616 7.815 87.1083 7.76833 87.1783 7.745C87.1783 7.745 87.2016 7.72167 87.2483 7.675C87.4116 7.55833 87.5749 7.5 87.7383 7.5C87.8316 7.47667 87.9249 7.465 88.0183 7.465C88.1116 7.465 88.1933 7.465 88.2633 7.465C88.3799 7.48833 88.4849 7.5 88.5783 7.5C88.6949 7.5 88.7999 7.5 88.8933 7.5H93.7233C93.8399 7.5 93.9566 7.5 94.0733 7.5C94.2133 7.47667 94.3416 7.48833 94.4583 7.535C94.6216 7.605 94.7616 7.69833 94.8783 7.815C94.9483 7.90833 94.9949 8.00167 95.0183 8.095C95.0649 8.235 95.0883 8.35167 95.0883 8.445C95.1116 8.60833 95.1116 8.78333 95.0883 8.97C95.0883 9.15667 95.0883 9.32 95.0883 9.46V29.865C95.1116 30.0983 95.1233 30.3317 95.1233 30.565C95.1466 30.7983 95.1349 31.02 95.0883 31.23ZM107.976 29.375C107.976 29.6783 107.988 29.9933 108.011 30.32C108.035 30.6233 108.023 30.9267 107.976 31.23C107.976 31.2533 107.965 31.2767 107.941 31.3C107.941 31.3 107.941 31.3233 107.941 31.37C107.871 31.5567 107.72 31.7317 107.486 31.895C107.416 32.0117 107.358 32.1283 107.311 32.245C107.265 32.385 107.206 32.5133 107.136 32.63C107.136 32.6533 107.113 32.7117 107.066 32.805C107.02 32.9217 106.961 32.9683 106.891 32.945C106.798 32.8983 106.74 32.805 106.716 32.665C106.693 32.525 106.67 32.4433 106.646 32.42L106.541 32.525C106.495 32.5717 106.436 32.63 106.366 32.7C106.32 32.77 106.273 32.8283 106.226 32.875L105.911 33.33C105.865 33.4233 105.806 33.5283 105.736 33.645C105.666 33.7617 105.585 33.8433 105.491 33.89C105.468 33.96 105.445 34.03 105.421 34.1C105.421 34.17 105.398 34.2517 105.351 34.345C105.328 34.3917 105.305 34.45 105.281 34.52C105.258 34.59 105.223 34.6483 105.176 34.695C105.176 34.7183 105.153 34.73 105.106 34.73C105.083 34.7533 105.06 34.7533 105.036 34.73C105.013 34.6133 104.99 34.485 104.966 34.345C104.966 34.205 104.955 34.065 104.931 33.925C104.908 33.8783 104.885 33.8317 104.861 33.785C104.861 33.7383 104.838 33.7033 104.791 33.68C104.745 33.6333 104.698 33.5867 104.651 33.54C104.605 33.4933 104.558 33.4467 104.511 33.4C104.441 33.33 104.383 33.2833 104.336 33.26C104.22 33.26 104.126 33.2483 104.056 33.225L103.951 33.645C103.928 33.6683 103.905 33.715 103.881 33.785C103.858 33.855 103.835 33.8783 103.811 33.855C103.765 33.7617 103.741 33.6567 103.741 33.54C103.765 33.4233 103.753 33.3183 103.706 33.225C103.683 33.225 103.671 33.225 103.671 33.225C103.671 33.2483 103.66 33.26 103.636 33.26C103.636 33.2833 103.59 33.3417 103.496 33.435C103.496 33.435 103.485 33.435 103.461 33.435C103.461 33.435 103.461 33.4467 103.461 33.47C103.461 33.47 103.45 33.4817 103.426 33.505C103.426 33.5283 103.368 33.575 103.251 33.645C103.228 33.925 103.205 34.205 103.181 34.485C103.181 34.765 103.17 35.045 103.146 35.325C103.1 35.8383 103.041 36.5033 102.971 37.32C102.925 38.16 102.843 38.8483 102.726 39.385C102.703 39.5017 102.68 39.6067 102.656 39.7C102.656 39.8167 102.633 39.9333 102.586 40.05C102.516 40.19 102.47 40.2483 102.446 40.225C102.376 40.1783 102.33 40.1083 102.306 40.015C102.306 39.945 102.295 39.8867 102.271 39.84C102.248 39.6533 102.225 39.4783 102.201 39.315C102.178 39.175 102.155 39.0233 102.131 38.86C102.108 38.51 102.085 38.0667 102.061 37.53C102.061 36.9933 102.061 36.4567 102.061 35.92C102.061 35.3833 102.038 34.94 101.991 34.59C101.991 34.4733 101.98 34.52 101.956 34.73C101.956 34.9633 101.945 35.185 101.921 35.395C101.921 35.6283 101.898 35.6983 101.851 35.605C101.758 35.2083 101.723 34.905 101.746 34.695C101.77 34.485 101.723 34.1117 101.606 33.575C101.56 33.5283 101.501 33.47 101.431 33.4C101.385 33.3533 101.338 33.295 101.291 33.225L100.801 32.7C100.755 32.6533 100.696 32.6067 100.626 32.56C100.58 32.5133 100.533 32.4667 100.486 32.42C100.393 32.35 100.311 32.315 100.241 32.315C100.171 32.315 100.136 32.315 100.136 32.315C100.113 32.4783 100.125 32.6767 100.171 32.91C100.218 33.1667 100.171 33.2717 100.031 33.225C99.8682 33.1783 99.8215 33.0383 99.8915 32.805C99.9615 32.5717 99.9615 32.385 99.8915 32.245C99.8215 32.0817 99.7865 32.0233 99.7865 32.07C99.7865 32.1167 99.7982 32.1867 99.8215 32.28C99.8448 32.3733 99.8565 32.4083 99.8565 32.385C99.8565 32.385 99.8098 32.2567 99.7165 32C99.6932 31.9767 99.6582 31.965 99.6115 31.965C99.5882 31.965 99.5532 31.9533 99.5065 31.93C99.1332 31.7667 98.9465 31.4633 98.9465 31.02C98.9232 30.7867 98.9115 30.5533 98.9115 30.32C98.9348 30.0633 98.9465 29.83 98.9465 29.62V9.145C98.9465 9.02833 98.9348 8.91166 98.9115 8.795C98.9115 8.655 98.9232 8.52667 98.9465 8.41C98.9465 8.31667 98.9698 8.2 99.0165 8.06C99.0632 7.96667 99.0982 7.90833 99.1215 7.885C99.1682 7.815 99.2148 7.75667 99.2615 7.71C99.3315 7.66333 99.3898 7.62833 99.4365 7.605C99.4832 7.58167 99.5298 7.57 99.5765 7.57C99.6232 7.54667 99.6698 7.535 99.7165 7.535C99.8098 7.48833 99.9032 7.465 99.9965 7.465C100.09 7.465 100.183 7.465 100.276 7.465C100.416 7.465 100.568 7.47667 100.731 7.5C100.895 7.5 101.035 7.5 101.151 7.5H106.611C106.728 7.5 106.845 7.5 106.961 7.5C107.101 7.47667 107.23 7.48833 107.346 7.535C107.37 7.55833 107.393 7.57 107.416 7.57C107.44 7.57 107.463 7.58167 107.486 7.605C107.626 7.65167 107.743 7.76833 107.836 7.955C107.883 8.025 107.93 8.15333 107.976 8.34C108.023 8.57333 108.035 8.81833 108.011 9.075C107.988 9.30833 107.976 9.51833 107.976 9.705V29.375ZM134.617 24.825C134.617 25.2917 134.547 25.8283 134.407 26.435C134.057 27.8583 133.357 29.025 132.307 29.935C132.284 29.9583 132.261 29.9817 132.237 30.005C132.214 30.0283 132.191 30.0517 132.167 30.075C132.167 30.355 132.202 30.67 132.272 31.02C132.342 31.3467 132.377 31.6617 132.377 31.965C132.401 32.2683 132.296 32.5133 132.062 32.7C131.876 32.8633 131.771 32.8167 131.747 32.56C131.747 32.3033 131.782 31.965 131.852 31.545C131.922 31.125 131.957 30.7633 131.957 30.46C131.771 30.88 131.537 31.2533 131.257 31.58C131.234 31.6033 131.199 31.6383 131.152 31.685C131.106 31.7317 131.059 31.7783 131.012 31.825C130.942 31.895 130.907 31.93 130.907 31.93C130.884 31.8367 130.861 31.755 130.837 31.685C130.837 31.5917 130.837 31.4983 130.837 31.405C130.651 31.6383 130.464 31.8717 130.277 32.105C130.114 32.3617 129.939 32.6183 129.752 32.875C129.449 33.3417 129.181 33.82 128.947 34.31C128.714 34.8233 128.422 35.3017 128.072 35.745C127.909 35.9317 127.734 36.1183 127.547 36.305C127.384 36.515 127.221 36.7133 127.057 36.9C126.987 36.9933 126.906 37.0867 126.812 37.18C126.742 37.2733 126.661 37.3433 126.567 37.39C126.521 37.5067 126.474 37.705 126.427 37.985C126.381 38.2883 126.322 38.51 126.252 38.65C126.252 38.6733 126.229 38.6967 126.182 38.72C126.159 38.7667 126.136 38.7783 126.112 38.755C126.066 38.685 126.031 38.6033 126.007 38.51C126.007 38.4167 125.996 38.3233 125.972 38.23C125.949 38.0667 125.937 37.9033 125.937 37.74C125.937 37.6 125.914 37.4483 125.867 37.285C125.844 37.2617 125.786 37.215 125.692 37.145C125.622 37.075 125.576 37.0167 125.552 36.97C125.529 36.9467 125.517 36.9233 125.517 36.9C125.517 36.9 125.506 36.8883 125.482 36.865L125.307 36.585C125.261 36.515 125.214 36.4333 125.167 36.34C125.121 36.27 125.074 36.2 125.027 36.13C125.027 36.13 125.004 36.1067 124.957 36.06C124.911 36.0367 124.841 35.99 124.747 35.92C124.654 35.8267 124.572 35.71 124.502 35.57C124.456 35.4533 124.397 35.3483 124.327 35.255C124.141 34.975 123.966 34.6833 123.802 34.38C123.639 34.1 123.487 33.8083 123.347 33.505C123.301 33.365 123.254 33.26 123.207 33.19C123.184 33.0733 123.137 32.9683 123.067 32.875C123.021 32.7817 122.974 32.6767 122.927 32.56L122.787 32.63C122.764 33.0967 122.741 33.5633 122.717 34.03C122.717 34.52 122.694 34.9983 122.647 35.465C122.647 35.535 122.624 35.6167 122.577 35.71C122.554 35.8267 122.531 35.8617 122.507 35.815C122.461 35.3017 122.437 34.8 122.437 34.31C122.437 33.82 122.414 33.33 122.367 32.84C122.367 32.7933 122.356 32.7817 122.332 32.805C122.309 32.8517 122.274 32.875 122.227 32.875C122.181 32.9217 122.134 32.945 122.087 32.945L121.877 33.225L121.562 33.75C121.422 34.0067 121.306 34.275 121.212 34.555C121.119 34.835 121.014 35.1033 120.897 35.36L120.792 35.605C120.792 35.6283 120.781 35.64 120.757 35.64C120.757 35.6633 120.757 35.6867 120.757 35.71C120.711 35.78 120.664 35.85 120.617 35.92C120.571 35.99 120.512 36.0483 120.442 36.095C120.396 36.1417 120.349 36.165 120.302 36.165C120.232 36.445 120.186 36.725 120.162 37.005C120.139 37.285 120.092 37.5533 120.022 37.81C119.999 37.8567 119.976 37.915 119.952 37.985C119.952 38.0783 119.929 38.125 119.882 38.125C119.836 38.125 119.801 38.0783 119.777 37.985C119.777 37.915 119.766 37.8567 119.742 37.81C119.672 37.5533 119.626 37.2967 119.602 37.04C119.602 36.7833 119.556 36.5267 119.462 36.27C119.392 36.34 119.322 36.41 119.252 36.48C119.182 36.55 119.112 36.6083 119.042 36.655C119.019 36.725 118.984 36.83 118.937 36.97C118.914 37.11 118.844 37.0983 118.727 36.935C118.704 36.8883 118.681 36.83 118.657 36.76C118.657 36.7133 118.646 36.6667 118.622 36.62C118.576 36.5733 118.529 36.515 118.482 36.445C118.459 36.375 118.424 36.3167 118.377 36.27C118.377 36.2467 118.366 36.235 118.342 36.235C118.342 36.235 118.342 36.2233 118.342 36.2C118.179 35.92 118.027 35.6283 117.887 35.325C117.771 35.045 117.596 34.7883 117.362 34.555C117.339 34.5083 117.316 34.4733 117.292 34.45C117.269 34.4267 117.246 34.4033 117.222 34.38L116.977 34.17C116.931 34.1233 116.872 34.0767 116.802 34.03C116.756 33.9833 116.709 33.9367 116.662 33.89C116.569 33.7733 116.464 33.645 116.347 33.505C116.231 33.3883 116.102 33.2833 115.962 33.19C115.822 33.1433 115.764 33.1317 115.787 33.155C115.834 33.1783 115.869 33.2017 115.892 33.225C115.939 33.2483 115.881 33.225 115.717 33.155C115.624 33.1083 115.542 33.0383 115.472 32.945C115.426 32.875 115.344 32.8283 115.227 32.805C115.064 32.7817 114.912 32.7933 114.772 32.84C114.632 32.8867 114.481 32.9333 114.317 32.98C114.131 33.0267 113.991 33.0383 113.897 33.015C113.804 33.015 113.757 33.0033 113.757 32.98C113.711 33.4933 113.687 34.1233 113.687 34.87C113.687 35.6167 113.664 36.2583 113.617 36.795C113.617 36.8417 113.594 36.8183 113.547 36.725C113.524 36.6317 113.501 36.5733 113.477 36.55C113.407 36.3633 113.337 36.1767 113.267 35.99C113.221 35.8267 113.174 35.6633 113.127 35.5C113.104 35.01 113.092 34.52 113.092 34.03C113.116 33.54 113.069 33.05 112.952 32.56C112.929 32.42 112.917 32.4433 112.917 32.63C112.941 32.8167 112.941 33.0267 112.917 33.26C112.917 33.5167 112.871 33.7033 112.777 33.82C112.684 33.9367 112.649 33.855 112.672 33.575C112.696 33.295 112.707 33.0733 112.707 32.91L112.462 31.965C112.369 31.9183 112.287 31.8717 112.217 31.825C111.961 31.6383 111.832 31.3817 111.832 31.055V9.425C111.832 9.26167 111.821 9.09833 111.797 8.935C111.797 8.77167 111.809 8.60833 111.832 8.445C111.832 8.28167 111.856 8.15333 111.902 8.06C111.949 7.96667 112.019 7.86167 112.112 7.745C112.322 7.58167 112.544 7.5 112.777 7.5H117.012C117.246 7.5 117.666 7.5 118.272 7.5C118.879 7.5 119.567 7.5 120.337 7.5C121.107 7.5 121.854 7.5 122.577 7.5C123.301 7.5 123.907 7.5 124.397 7.5C124.724 7.5 125.039 7.51166 125.342 7.535C125.646 7.535 125.937 7.54667 126.217 7.57C126.311 7.57 126.392 7.58167 126.462 7.605C126.556 7.605 126.649 7.605 126.742 7.605C126.976 7.62833 127.197 7.65167 127.407 7.675C127.617 7.675 127.827 7.69833 128.037 7.745C128.154 7.76833 128.259 7.79167 128.352 7.815C128.469 7.83833 128.574 7.86167 128.667 7.885C128.714 7.885 128.749 7.89667 128.772 7.92C128.889 7.94333 128.982 7.96667 129.052 7.99C129.122 8.01333 129.192 8.04833 129.262 8.095C129.332 8.11833 129.391 8.14167 129.437 8.165C129.507 8.18833 129.577 8.21167 129.647 8.235C130.511 8.53833 131.269 8.95833 131.922 9.495C131.992 9.54167 132.062 9.6 132.132 9.67C132.202 9.71667 132.261 9.76333 132.307 9.81C132.424 9.92667 132.517 10.0317 132.587 10.125C132.727 10.265 132.879 10.475 133.042 10.755C133.182 10.9183 133.299 11.105 133.392 11.315C133.486 11.5017 133.567 11.7 133.637 11.91C133.847 12.54 133.987 13.24 134.057 14.01C134.104 14.4767 134.104 14.9433 134.057 15.41C134.034 15.8533 133.941 16.215 133.777 16.495C133.754 16.565 133.731 16.635 133.707 16.705C133.684 16.7517 133.649 16.81 133.602 16.88C133.532 17.0433 133.451 17.195 133.357 17.335C133.264 17.475 133.159 17.615 133.042 17.755C132.996 17.8017 132.949 17.86 132.902 17.93C132.856 18 132.809 18.0583 132.762 18.105L132.447 18.42C132.377 18.4667 132.272 18.56 132.132 18.7C132.109 18.8633 132.097 19.0267 132.097 19.19C132.097 19.33 132.086 19.4817 132.062 19.645C132.202 19.715 132.331 19.8083 132.447 19.925C132.587 20.0183 132.681 20.0883 132.727 20.135L133.252 20.66C133.439 20.8467 133.637 21.1267 133.847 21.5C134.361 22.3867 134.617 23.32 134.617 24.3V24.825ZM120.862 13.555L120.582 13.52V16.705H123.557C123.674 16.705 123.779 16.6933 123.872 16.67C124.129 16.5767 124.351 16.4017 124.537 16.145C124.724 15.865 124.841 15.5733 124.887 15.27C124.911 15.0833 124.911 14.8967 124.887 14.71C124.864 14.5233 124.806 14.3483 124.712 14.185C124.642 14.045 124.526 13.9167 124.362 13.8C124.362 13.7767 124.351 13.765 124.327 13.765C124.164 13.6483 123.989 13.6017 123.802 13.625C123.616 13.625 123.429 13.6367 123.242 13.66C123.009 13.6833 122.776 13.695 122.542 13.695C122.309 13.695 122.076 13.6833 121.842 13.66C121.679 13.66 121.516 13.6483 121.352 13.625C121.189 13.6017 121.026 13.5783 120.862 13.555ZM120.582 25.98H123.802C123.919 25.98 124.071 25.9567 124.257 25.91C124.701 25.7933 125.016 25.4667 125.202 24.93C125.412 24.37 125.424 23.8683 125.237 23.425L125.167 23.25C125.121 23.18 125.051 23.0983 124.957 23.005C124.724 22.7717 124.421 22.69 124.047 22.76C123.674 22.8067 123.336 22.8417 123.032 22.865C122.799 22.8883 122.566 22.8883 122.332 22.865C122.122 22.8183 121.901 22.7833 121.667 22.76C121.527 22.7133 121.387 22.69 121.247 22.69C121.107 22.6667 120.979 22.6433 120.862 22.62L120.582 22.83V25.98ZM157.065 30.425C157.065 30.495 157.065 30.565 157.065 30.635C157.089 30.705 157.1 30.775 157.1 30.845C157.1 30.9383 157.089 31.0317 157.065 31.125C157.065 31.195 157.054 31.2767 157.03 31.37L156.925 31.545C156.925 31.5683 156.902 31.6033 156.855 31.65C156.832 31.6733 156.82 31.685 156.82 31.685C156.727 31.7783 156.645 31.8483 156.575 31.895C156.552 31.9183 156.529 31.93 156.505 31.93C156.505 31.93 156.494 31.9417 156.47 31.965C156.4 32.035 156.33 32.105 156.26 32.175C156.214 32.245 156.144 32.3033 156.05 32.35C156.004 32.3967 155.957 32.4317 155.91 32.455C155.887 32.5017 155.817 32.5483 155.7 32.595C155.607 32.6183 155.502 32.6533 155.385 32.7C155.292 32.7467 155.199 32.7583 155.105 32.735C155.012 32.6883 154.954 32.6417 154.93 32.595C154.907 32.5483 154.872 32.49 154.825 32.42L154.685 32.28C154.592 32.3267 154.58 32.42 154.65 32.56C154.72 32.7 154.697 32.9917 154.58 33.435L154.3 33.82C154.277 33.8433 154.242 33.89 154.195 33.96C154.172 34.03 154.16 34.0417 154.16 33.995C154.114 33.7617 154.09 33.5167 154.09 33.26C154.114 33.0033 154.102 32.7583 154.055 32.525C154.032 32.525 154.02 32.525 154.02 32.525C154.02 32.5483 154.02 32.56 154.02 32.56C153.974 32.63 153.915 32.7 153.845 32.77C153.775 32.84 153.717 32.8983 153.67 32.945L153.495 33.12C153.472 33.12 153.46 33.12 153.46 33.12C153.46 33.1433 153.449 33.155 153.425 33.155C153.332 33.2717 153.215 33.3883 153.075 33.505C152.959 33.6217 152.842 33.7383 152.725 33.855C152.679 33.9017 152.609 33.9483 152.515 33.995C152.469 34.5083 152.434 35.08 152.41 35.71C152.41 36.34 152.387 36.9233 152.34 37.46C152.34 37.4833 152.317 37.46 152.27 37.39C152.224 37.3433 152.2 37.3083 152.2 37.285C152.154 36.7483 152.13 36.1767 152.13 35.57C152.13 34.9867 152.107 34.4383 152.06 33.925C151.944 33.8083 151.85 33.68 151.78 33.54C151.734 33.4467 151.687 33.3533 151.64 33.26C151.617 33.19 151.582 33.1083 151.535 33.015L151.43 32.805H151.36C151.337 32.8283 151.302 32.8283 151.255 32.805C151.232 32.7817 151.22 32.7933 151.22 32.84C151.174 33.3533 151.15 33.9133 151.15 34.52C151.15 35.1267 151.127 35.6983 151.08 36.235L150.8 36.305C150.777 36.305 150.754 36.305 150.73 36.305C150.707 36.3283 150.684 36.34 150.66 36.34C150.567 36.34 150.52 36.3517 150.52 36.375C150.474 35.8383 150.45 35.2433 150.45 34.59C150.45 33.96 150.427 33.3883 150.38 32.875C150.38 32.875 150.287 32.875 150.1 32.875L149.995 32.98C149.995 32.98 149.984 32.98 149.96 32.98C149.96 33.0033 149.949 33.015 149.925 33.015L149.68 33.26C149.634 33.3067 149.587 33.4 149.54 33.54C149.517 33.5867 149.482 33.6333 149.435 33.68C149.412 33.75 149.4 33.8083 149.4 33.855C149.377 34.3217 149.354 34.7883 149.33 35.255C149.33 35.745 149.307 36.2233 149.26 36.69C149.26 36.9233 149.214 37.1217 149.12 37.285C149.097 37.3083 149.062 37.2967 149.015 37.25C148.969 37.2267 148.945 37.2033 148.945 37.18C148.899 36.6433 148.875 36.1067 148.875 35.57C148.899 35.0567 148.875 34.5433 148.805 34.03C148.805 33.9133 148.794 33.96 148.77 34.17C148.77 34.4033 148.759 34.625 148.735 34.835C148.735 35.045 148.712 35.1033 148.665 35.01C148.572 34.73 148.537 34.4383 148.56 34.135C148.607 33.855 148.607 33.575 148.56 33.295C148.537 33.2717 148.514 33.2483 148.49 33.225C148.467 33.2017 148.444 33.1783 148.42 33.155C148.374 33.1083 148.327 33.05 148.28 32.98C148.234 32.9333 148.187 32.8867 148.14 32.84C148.094 32.77 148.047 32.7 148 32.63C147.954 32.5833 147.907 32.5367 147.86 32.49L147.685 32.28C147.662 32.3967 147.65 32.5133 147.65 32.63C147.65 32.77 147.627 32.8983 147.58 33.015C147.58 33.0383 147.557 33.05 147.51 33.05C147.487 33.0733 147.464 33.0967 147.44 33.12C147.417 33.1433 147.394 33.155 147.37 33.155C147.347 33.1783 147.324 33.2133 147.3 33.26C147.207 33.3533 147.16 33.3883 147.16 33.365C147.114 33.2017 147.09 33.0383 147.09 32.875C147.114 32.735 147.102 32.595 147.055 32.455C146.985 32.5483 146.915 32.63 146.845 32.7C146.775 32.7933 146.694 32.875 146.6 32.945C146.46 33.085 146.355 33.1667 146.285 33.19C146.262 33.3067 146.239 33.4233 146.215 33.54C146.215 33.68 146.204 33.8083 146.18 33.925C146.157 33.995 146.134 34.065 146.11 34.135C146.11 34.2283 146.087 34.31 146.04 34.38C145.947 34.4733 145.889 34.485 145.865 34.415C145.795 34.2983 145.737 34.065 145.69 33.715C145.667 33.3883 145.644 33.2017 145.62 33.155C145.597 33.155 145.562 33.1433 145.515 33.12C145.492 33.0967 145.492 33.085 145.515 33.085L145.445 33.015C145.352 32.9217 145.27 32.805 145.2 32.665C145.154 32.5483 145.107 32.4433 145.06 32.35C145.06 32.3267 145.049 32.315 145.025 32.315C145.025 32.315 145.025 32.3033 145.025 32.28C145.002 32.3967 144.99 32.5133 144.99 32.63C144.99 32.7467 144.967 32.8633 144.92 32.98C144.897 33.0033 144.874 33.015 144.85 33.015C144.827 33.0383 144.804 33.0733 144.78 33.12C144.757 33.1433 144.734 33.19 144.71 33.26C144.687 33.33 144.664 33.3533 144.64 33.33C144.617 33.19 144.594 33.05 144.57 32.91C144.57 32.77 144.559 32.6417 144.535 32.525C144.489 32.6183 144.442 32.7 144.395 32.77C144.349 32.8633 144.29 32.9567 144.22 33.05C143.964 33.4233 143.719 33.7967 143.485 34.17C143.252 34.5433 143.03 34.9283 142.82 35.325C142.844 35.2783 142.82 35.325 142.75 35.465C142.68 35.605 142.599 35.7333 142.505 35.85L142.47 35.885C142.424 35.9317 142.354 35.9783 142.26 36.025C142.237 36.095 142.214 36.165 142.19 36.235C142.19 36.3283 142.167 36.4217 142.12 36.515C142.097 36.5617 142.074 36.62 142.05 36.69C142.05 36.76 142.027 36.8183 141.98 36.865C141.934 36.935 141.887 36.9467 141.84 36.9C141.77 36.8067 141.712 36.62 141.665 36.34C141.642 36.06 141.619 35.9083 141.595 35.885L141.385 35.675C141.385 35.6283 141.362 35.605 141.315 35.605C141.292 35.5117 141.257 35.4417 141.21 35.395C141.164 35.3483 141.14 35.325 141.14 35.325C141.047 35.185 140.954 35.0333 140.86 34.87C140.767 34.73 140.674 34.59 140.58 34.45C140.44 34.24 140.289 34.03 140.125 33.82C139.985 33.61 139.834 33.4 139.67 33.19C139.577 33.0733 139.484 32.9567 139.39 32.84C139.32 32.7467 139.227 32.6533 139.11 32.56C139.04 32.49 138.959 32.42 138.865 32.35C138.795 32.28 138.76 32.245 138.76 32.245C138.76 32.245 138.737 32.2217 138.69 32.175C138.667 32.1517 138.632 32.1283 138.585 32.105C138.562 32.455 138.55 32.98 138.55 33.68C138.55 34.38 138.539 35.08 138.515 35.78C138.515 36.48 138.504 37.005 138.48 37.355C138.48 37.3783 138.469 37.355 138.445 37.285C138.422 37.215 138.41 37.1683 138.41 37.145C138.34 36.165 138.317 35.3017 138.34 34.555C138.387 33.8083 138.329 32.945 138.165 31.965C138.025 31.895 137.92 31.825 137.85 31.755C137.687 31.615 137.582 31.4167 137.535 31.16C137.489 30.9033 137.477 30.6467 137.5 30.39C137.524 30.11 137.535 29.8533 137.535 29.62V9.145C137.535 9.02833 137.524 8.91166 137.5 8.795C137.5 8.655 137.512 8.52667 137.535 8.41C137.535 8.31667 137.559 8.2 137.605 8.06C137.652 7.96667 137.687 7.90833 137.71 7.885C137.757 7.815 137.804 7.75667 137.85 7.71C137.92 7.66333 137.979 7.62833 138.025 7.605C138.072 7.58167 138.119 7.57 138.165 7.57C138.212 7.54667 138.259 7.535 138.305 7.535C138.399 7.48833 138.492 7.465 138.585 7.465C138.679 7.465 138.772 7.465 138.865 7.465C139.005 7.465 139.157 7.47667 139.32 7.5C139.484 7.5 139.624 7.5 139.74 7.5H145.06C145.177 7.5 145.294 7.5 145.41 7.5C145.55 7.47667 145.679 7.48833 145.795 7.535C145.912 7.55833 145.994 7.605 146.04 7.675C146.087 7.72167 146.122 7.75667 146.145 7.78C146.285 7.87333 146.367 8.00167 146.39 8.165C146.414 8.305 146.425 8.445 146.425 8.585C146.449 9.075 146.449 9.565 146.425 10.055C146.425 10.545 146.425 11.035 146.425 11.525V24.545L146.565 24.825H156.12C156.307 24.825 156.494 24.8833 156.68 25L156.89 25.21L156.995 25.42C157.042 25.5133 157.065 25.6067 157.065 25.7C157.089 25.8633 157.089 26.0383 157.065 26.225C157.065 26.4117 157.065 26.5867 157.065 26.75V30.425ZM180.87 27.24C180.754 27.52 180.637 27.7183 180.52 27.835L180.1 28.465C179.89 28.745 179.657 29.0133 179.4 29.27L178.77 29.83C178.747 30.25 178.724 30.67 178.7 31.09C178.7 31.51 178.689 31.9417 178.665 32.385C178.642 32.595 178.642 32.805 178.665 33.015C178.689 33.2483 178.642 33.4583 178.525 33.645C178.432 33.7617 178.385 33.68 178.385 33.4C178.409 33.12 178.42 32.8983 178.42 32.735C178.397 32.3383 178.374 31.93 178.35 31.51C178.35 31.0667 178.327 30.6467 178.28 30.25C178.117 30.4367 177.977 30.67 177.86 30.95C177.744 31.23 177.65 31.4867 177.58 31.72C177.44 32.1167 177.3 32.525 177.16 32.945C177.02 33.365 176.869 33.7733 176.705 34.17C176.635 34.3567 176.565 34.5433 176.495 34.73C176.425 34.94 176.332 35.1267 176.215 35.29C176.192 35.3133 176.145 35.3483 176.075 35.395C176.029 35.4417 175.982 35.4767 175.935 35.5C175.772 35.5233 175.632 35.4183 175.515 35.185C175.399 34.975 175.317 34.8233 175.27 34.73C175.247 34.6833 175.212 34.6367 175.165 34.59C175.142 34.5433 175.13 34.4967 175.13 34.45C175.107 34.1 175.084 33.7383 175.06 33.365C175.06 33.015 175.037 32.6533 174.99 32.28C174.897 32.42 174.792 32.56 174.675 32.7C174.582 32.84 174.477 32.98 174.36 33.12C174.314 33.1667 174.29 33.19 174.29 33.19C174.267 33.2367 174.232 33.2717 174.185 33.295C174.139 33.3417 174.092 33.3883 174.045 33.435C174.022 33.4817 173.975 33.5633 173.905 33.68C173.859 33.82 173.812 33.9133 173.765 33.96C173.719 34.0067 173.672 34.0067 173.625 33.96C173.555 33.9133 173.497 33.8083 173.45 33.645C173.427 33.505 173.392 33.4 173.345 33.33C173.252 33.26 173.17 33.1667 173.1 33.05C173.03 32.9333 172.972 32.8283 172.925 32.735C172.879 32.665 172.832 32.5833 172.785 32.49C172.762 32.6067 172.739 32.735 172.715 32.875C172.715 33.0383 172.692 33.1783 172.645 33.295C172.645 33.295 172.599 33.295 172.505 33.295C172.435 33.295 172.365 33.2833 172.295 33.26C172.225 33.26 172.155 33.26 172.085 33.26C171.922 33.2367 171.805 33.2133 171.735 33.19H171.525C171.409 33.26 171.222 33.26 170.965 33.19C170.942 33.1667 170.907 33.1433 170.86 33.12C170.837 33.0967 170.825 33.0967 170.825 33.12C170.779 33.54 170.755 33.9483 170.755 34.345C170.755 34.765 170.732 35.1733 170.685 35.57C170.662 35.6633 170.639 35.6167 170.615 35.43C170.592 35.2667 170.569 35.1383 170.545 35.045C170.522 34.6717 170.51 34.2983 170.51 33.925C170.534 33.5517 170.499 33.1783 170.405 32.805C170.382 32.665 170.359 32.6767 170.335 32.84C170.335 33.0033 170.335 33.2017 170.335 33.435C170.335 33.6683 170.312 33.8433 170.265 33.96C170.242 34.0533 170.219 34.0067 170.195 33.82C170.195 33.6567 170.184 33.5283 170.16 33.435L169.95 32.35H169.915C167.605 32.3033 165.599 31.895 163.895 31.125C162.192 30.355 160.874 29.2233 159.94 27.73C159.777 27.5433 159.637 27.3217 159.52 27.065C159.427 26.8083 159.345 26.5633 159.275 26.33L159.065 25.84V25.805C159.019 25.665 158.972 25.525 158.925 25.385C158.879 25.245 158.832 25.105 158.785 24.965C158.692 24.615 158.622 24.16 158.575 23.6C158.529 23.04 158.505 22.4917 158.505 21.955C158.505 21.395 158.505 20.94 158.505 20.59C158.505 20.1233 158.505 19.6567 158.505 19.19C158.505 18.7 158.517 18.2333 158.54 17.79V17.51C158.54 17.1833 158.54 16.845 158.54 16.495C158.564 16.145 158.61 15.8067 158.68 15.48C158.68 15.4333 158.68 15.3983 158.68 15.375C158.704 15.3517 158.715 15.3283 158.715 15.305C158.925 14.0217 159.345 12.8783 159.975 11.875C160.185 11.455 160.465 11.07 160.815 10.72C162.915 8.34 166.065 7.15 170.265 7.15H171C171.047 7.15 171.082 7.16167 171.105 7.185C171.222 7.185 171.327 7.185 171.42 7.185C171.537 7.185 171.642 7.19667 171.735 7.22C171.805 7.19667 171.864 7.19667 171.91 7.22C171.98 7.22 172.05 7.22 172.12 7.22L172.715 7.325C172.949 7.34833 173.17 7.38333 173.38 7.43C173.614 7.47667 173.847 7.52333 174.08 7.57C174.337 7.59333 174.629 7.66333 174.955 7.78C174.979 7.78 174.99 7.79167 174.99 7.815C175.014 7.815 175.037 7.815 175.06 7.815C175.247 7.83833 175.422 7.885 175.585 7.955C175.772 8.00166 175.924 8.07166 176.04 8.165C177.534 8.77167 178.817 9.68167 179.89 10.895C180.217 11.2217 180.509 11.665 180.765 12.225C181.185 13.0183 181.5 13.8467 181.71 14.71C181.78 14.8733 181.815 15.0717 181.815 15.305L181.92 15.97C181.944 16.2267 181.955 16.4833 181.955 16.74C181.979 16.9967 181.99 17.2533 181.99 17.51C182.014 17.86 182.025 18.2917 182.025 18.805C182.025 19.3183 182.025 19.8317 182.025 20.345C182.025 20.8583 182.025 21.29 182.025 21.64C182.002 22.0833 181.99 22.5383 181.99 23.005C181.99 23.4483 181.932 23.88 181.815 24.3C181.652 25.3733 181.337 26.3533 180.87 27.24ZM168.795 24.895C168.935 25.0817 169.087 25.245 169.25 25.385C169.484 25.4317 169.764 25.4783 170.09 25.525H170.51C170.58 25.5017 170.65 25.49 170.72 25.49C170.814 25.49 170.895 25.4783 170.965 25.455C171.409 25.3383 171.77 25.1283 172.05 24.825C172.167 24.7083 172.272 24.5683 172.365 24.405C172.459 24.2417 172.529 24.0783 172.575 23.915L172.68 23.53C172.774 23.1333 172.82 22.7483 172.82 22.375C172.844 21.9783 172.867 21.64 172.89 21.36V18.945C172.89 18.665 172.89 18.385 172.89 18.105C172.89 17.8017 172.879 17.51 172.855 17.23C172.855 17.0667 172.855 16.915 172.855 16.775C172.855 16.6117 172.844 16.46 172.82 16.32C172.797 16.2733 172.785 16.2267 172.785 16.18C172.785 16.11 172.774 16.0633 172.75 16.04C172.75 15.97 172.727 15.865 172.68 15.725C172.61 15.445 172.505 15.2117 172.365 15.025C172.225 14.815 172.062 14.6283 171.875 14.465L171.84 14.43C171.747 14.3833 171.689 14.36 171.665 14.36C171.619 14.3367 171.537 14.325 171.42 14.325C171.397 14.325 171.374 14.3367 171.35 14.36C171.327 14.3833 171.28 14.4067 171.21 14.43C171.187 14.43 171.164 14.43 171.14 14.43C171.14 14.4067 171.117 14.395 171.07 14.395C170.977 14.4183 170.872 14.4767 170.755 14.57C170.639 14.6633 170.545 14.745 170.475 14.815C170.429 14.8383 170.359 14.8733 170.265 14.92C170.172 14.9667 170.114 15.0133 170.09 15.06C169.997 15.1767 169.95 15.2817 169.95 15.375C169.95 15.4683 169.857 15.5033 169.67 15.48C169.507 15.48 169.437 15.4567 169.46 15.41C169.507 15.3633 169.472 15.2583 169.355 15.095C169.332 15.0483 169.297 15.0133 169.25 14.99C169.204 14.9667 169.157 14.9433 169.11 14.92C169.134 14.92 169.099 14.8967 169.005 14.85C168.935 14.78 168.889 14.7333 168.865 14.71C168.865 14.71 168.854 14.71 168.83 14.71C168.83 14.6867 168.784 14.6283 168.69 14.535C168.644 14.465 168.632 14.4533 168.655 14.5C168.702 14.5233 168.69 14.5233 168.62 14.5C168.62 14.5 168.609 14.5 168.585 14.5C168.585 14.5 168.585 14.5117 168.585 14.535C168.539 14.5817 168.48 14.64 168.41 14.71C168.34 14.7567 168.247 14.8733 168.13 15.06C167.967 15.3633 167.862 15.6667 167.815 15.97C167.769 16.25 167.722 16.53 167.675 16.81C167.675 16.9267 167.664 17.09 167.64 17.3C167.64 17.51 167.64 17.7083 167.64 17.895V20.59C167.64 20.7767 167.64 20.9633 167.64 21.15C167.664 21.3133 167.687 21.4883 167.71 21.675C167.78 22.165 167.909 22.7367 168.095 23.39L168.2 23.67C168.294 23.9033 168.387 24.125 168.48 24.335C168.574 24.5217 168.679 24.7083 168.795 24.895ZM206.847 28.045C206.8 28.115 206.742 28.185 206.672 28.255C206.625 28.325 206.579 28.3833 206.532 28.43C206.439 28.5233 206.357 28.6167 206.287 28.71C206.217 28.8033 206.135 28.8967 206.042 28.99C205.949 29.0833 205.844 29.1767 205.727 29.27C205.634 29.3633 205.529 29.4683 205.412 29.585C205.365 29.6317 205.319 29.6667 205.272 29.69C205.272 29.7133 205.249 29.7367 205.202 29.76C205.179 29.7833 205.179 29.7833 205.202 29.76C205.109 29.9 205.05 30.0167 205.027 30.11C205.004 30.1333 204.992 30.1567 204.992 30.18C204.922 30.3433 204.852 30.5067 204.782 30.67C204.735 30.8333 204.677 30.9967 204.607 31.16C204.607 31.2067 204.595 31.2417 204.572 31.265C204.549 31.3817 204.502 31.51 204.432 31.65C204.385 31.7667 204.339 31.8833 204.292 32L204.187 32.21C204.117 32.35 204.035 32.4783 203.942 32.595C203.872 32.735 203.779 32.84 203.662 32.91C203.639 33.1667 203.662 33.4933 203.732 33.89C203.825 34.2867 203.895 34.6717 203.942 35.045C204.012 35.4183 204.024 35.7217 203.977 35.955C203.93 36.1883 203.779 36.2817 203.522 36.235C203.172 36.165 203.009 35.92 203.032 35.5C203.055 35.1033 203.125 34.6367 203.242 34.1C203.382 33.5867 203.429 33.155 203.382 32.805C203.382 32.805 203.359 32.7817 203.312 32.735C203.265 32.6883 203.242 32.665 203.242 32.665C203.242 32.6417 203.23 32.63 203.207 32.63C203.207 32.63 203.207 32.6183 203.207 32.595L203.102 32.42C203.055 32.3033 203.009 32.1983 202.962 32.105C202.915 32.0117 202.857 31.9183 202.787 31.825C202.764 31.825 202.752 31.8133 202.752 31.79L202.542 31.895H202.507C202.484 32.2217 202.46 32.5367 202.437 32.84C202.437 33.1667 202.425 33.4933 202.402 33.82C202.379 34.03 202.367 34.3217 202.367 34.695C202.367 35.0917 202.367 35.4067 202.367 35.64C202.367 35.8967 202.332 35.92 202.262 35.71C202.192 35.4533 202.145 35.1967 202.122 34.94C202.122 34.7067 202.122 34.4617 202.122 34.205C202.052 34.205 202.017 34.1933 202.017 34.17C201.994 34.0067 201.994 33.82 202.017 33.61C202.064 33.4233 202.099 33.225 202.122 33.015V32.84C202.122 32.8167 202.11 32.8283 202.087 32.875C202.064 32.9217 202.04 32.945 202.017 32.945C201.97 32.8983 201.935 32.8517 201.912 32.805C201.912 32.7583 201.9 32.7233 201.877 32.7C201.854 32.6767 201.83 32.6067 201.807 32.49C201.784 32.3733 201.749 32.2567 201.702 32.14C201.562 32.2333 201.504 32.3967 201.527 32.63C201.55 32.8867 201.597 33.155 201.667 33.435C201.737 33.7383 201.76 33.995 201.737 34.205C201.737 34.2283 201.714 34.24 201.667 34.24C201.644 34.2633 201.62 34.2983 201.597 34.345C201.574 34.3683 201.55 34.415 201.527 34.485C201.504 34.555 201.48 34.5667 201.457 34.52C201.434 34.1933 201.422 33.8667 201.422 33.54C201.422 33.2133 201.41 32.8983 201.387 32.595C201.317 32.8517 201.247 33.1317 201.177 33.435C201.13 33.7383 201.049 34.0183 200.932 34.275C200.909 34.345 200.874 34.415 200.827 34.485C200.78 34.5783 200.722 34.6367 200.652 34.66C200.535 34.73 200.43 34.695 200.337 34.555C200.29 34.5083 200.244 34.45 200.197 34.38C200.174 34.31 200.15 34.2633 200.127 34.24C199.964 34.03 199.777 33.82 199.567 33.61C199.38 33.4 199.217 33.1783 199.077 32.945C199.077 32.9217 199.065 32.8983 199.042 32.875C199.042 32.875 199.042 32.8633 199.042 32.84C199.019 32.84 199.007 32.8283 199.007 32.805C198.984 32.7583 198.96 32.7 198.937 32.63C198.914 32.5833 198.89 32.5367 198.867 32.49C198.82 32.6067 198.797 32.735 198.797 32.875C198.82 33.0383 198.797 33.19 198.727 33.33C198.704 33.3533 198.68 33.3183 198.657 33.225C198.634 33.155 198.61 33.0967 198.587 33.05C198.54 32.91 198.517 32.7933 198.517 32.7C198.47 32.7933 198.412 32.8867 198.342 32.98C198.295 33.0967 198.225 33.2017 198.132 33.295C197.969 33.4583 197.864 33.68 197.817 33.96C197.77 34.2633 197.759 34.5783 197.782 34.905C197.735 34.905 197.677 34.94 197.607 35.01C197.56 35.08 197.514 35.15 197.467 35.22C197.42 35.29 197.385 35.3833 197.362 35.5C197.362 35.0333 197.362 34.6017 197.362 34.205C197.385 33.8083 197.385 33.505 197.362 33.295C197.245 33.2017 197.129 33.085 197.012 32.945C196.919 32.8283 196.837 32.735 196.767 32.665C196.744 32.6183 196.697 32.56 196.627 32.49C196.604 32.49 196.569 32.4667 196.522 32.42C196.429 32.3733 196.37 32.4083 196.347 32.525C196.324 32.735 196.312 32.945 196.312 33.155C196.312 33.3883 196.289 33.61 196.242 33.82C196.219 33.8667 196.195 33.8317 196.172 33.715C196.172 33.5983 196.16 33.5167 196.137 33.47L196.032 32.35H195.997C193.664 32.3033 191.645 31.9183 189.942 31.195C188.239 30.4483 186.932 29.3517 186.022 27.905C185.882 27.7183 185.754 27.52 185.637 27.31C185.544 27.0767 185.45 26.8433 185.357 26.61C185.287 26.47 185.229 26.33 185.182 26.19C185.135 26.05 185.089 25.91 185.042 25.77C184.949 25.63 184.867 25.385 184.797 25.035C184.68 24.6617 184.599 24.195 184.552 23.635C184.505 23.075 184.482 22.515 184.482 21.955C184.482 21.3717 184.482 20.905 184.482 20.555C184.482 20.345 184.482 20.135 184.482 19.925C184.482 19.715 184.494 19.505 184.517 19.295V17.895C184.517 17.4283 184.517 16.95 184.517 16.46C184.54 15.9467 184.599 15.4683 184.692 15.025C184.902 13.7417 185.322 12.61 185.952 11.63L186.162 11.28C186.185 11.2567 186.197 11.2333 186.197 11.21C186.22 11.1867 186.244 11.1633 186.267 11.14C186.314 11.07 186.36 11 186.407 10.93C186.477 10.86 186.535 10.8017 186.582 10.755C187.585 9.58833 188.892 8.70167 190.502 8.095C192.135 7.48833 193.99 7.17333 196.067 7.15H196.522C196.732 7.15 196.954 7.15 197.187 7.15C197.42 7.15 197.619 7.16167 197.782 7.185C197.852 7.185 197.922 7.19667 197.992 7.22C198.062 7.22 198.132 7.22 198.202 7.22L198.902 7.29C199.019 7.31333 199.135 7.33667 199.252 7.36C199.369 7.36 199.474 7.37167 199.567 7.395C200.104 7.465 200.629 7.57 201.142 7.71C201.165 7.71 201.177 7.72167 201.177 7.745C202.46 8.07167 203.569 8.52667 204.502 9.11C205.459 9.67 206.252 10.3233 206.882 11.07C206.999 11.21 207.115 11.3617 207.232 11.525C207.349 11.665 207.454 11.8283 207.547 12.015C207.547 12.0383 207.57 12.0733 207.617 12.12C207.664 12.2133 207.71 12.3183 207.757 12.435C207.827 12.5517 207.885 12.6683 207.932 12.785C208.142 13.275 208.282 13.7883 208.352 14.325V14.5C208.375 14.57 208.387 14.64 208.387 14.71C208.387 14.78 208.387 14.85 208.387 14.92V15.13C208.387 15.1767 208.364 15.2233 208.317 15.27C208.317 15.27 208.305 15.2817 208.282 15.305C208.282 15.305 208.282 15.3167 208.282 15.34C208.282 15.34 208.259 15.3633 208.212 15.41C208.259 15.41 208.27 15.4217 208.247 15.445C208.224 15.445 208.177 15.48 208.107 15.55C208.084 15.5733 208.06 15.6083 208.037 15.655C208.014 15.6783 207.99 15.7133 207.967 15.76C207.944 15.7833 207.932 15.8067 207.932 15.83C207.932 15.8533 207.92 15.8767 207.897 15.9C207.874 15.9233 207.85 15.97 207.827 16.04C207.827 16.11 207.804 16.1333 207.757 16.11C207.71 16.11 207.687 16.0867 207.687 16.04C207.687 15.97 207.675 15.9117 207.652 15.865C207.629 15.865 207.617 15.865 207.617 15.865C207.617 15.8417 207.617 15.83 207.617 15.83C207.594 15.8067 207.559 15.8067 207.512 15.83C207.489 15.8533 207.454 15.8767 207.407 15.9C207.36 15.9467 207.337 15.97 207.337 15.97C207.314 15.9933 207.267 16.005 207.197 16.005C207.15 16.005 207.104 16.0167 207.057 16.04C206.894 16.0867 206.719 16.145 206.532 16.215C206.369 16.285 206.194 16.3083 206.007 16.285C205.844 16.285 205.692 16.2617 205.552 16.215C205.435 16.145 205.295 16.0983 205.132 16.075C205.015 16.0283 204.887 16.0167 204.747 16.04C204.63 16.0633 204.502 16.075 204.362 16.075C204.315 16.075 204.269 16.075 204.222 16.075C204.175 16.0517 204.129 16.04 204.082 16.04C203.965 16.0633 203.849 16.1333 203.732 16.25C203.639 16.3433 203.545 16.425 203.452 16.495C203.359 16.565 203.254 16.6117 203.137 16.635C203.02 16.6583 202.904 16.6933 202.787 16.74C202.67 16.81 202.565 16.9033 202.472 17.02C202.379 17.1133 202.274 17.1833 202.157 17.23H207.442C207.629 17.23 207.815 17.2883 208.002 17.405L208.212 17.615C208.329 17.7783 208.387 17.965 208.387 18.175C208.387 18.3617 208.387 18.5483 208.387 18.735V20.8C208.387 21.22 208.387 21.64 208.387 22.06C208.41 22.48 208.41 22.9 208.387 23.32C208.364 23.9033 208.294 24.4517 208.177 24.965C208.06 25.455 207.909 25.9333 207.722 26.4L207.407 27.1C207.314 27.2633 207.22 27.4267 207.127 27.59C207.057 27.7533 206.964 27.905 206.847 28.045ZM196.382 25.525H196.487C196.954 25.525 197.42 25.455 197.887 25.315C198.377 25.1517 198.762 24.8833 199.042 24.51C199.159 24.3233 199.24 24.1483 199.287 23.985C199.357 23.7983 199.404 23.6233 199.427 23.46C199.427 23.4367 199.427 23.4017 199.427 23.355C199.45 23.3083 199.462 23.2617 199.462 23.215L199.357 23.005C199.287 23.0283 199.229 23.0867 199.182 23.18C199.135 23.2733 199.089 23.3433 199.042 23.39C198.972 23.4833 198.89 23.565 198.797 23.635C198.727 23.705 198.645 23.775 198.552 23.845C198.505 23.8683 198.459 23.8917 198.412 23.915C198.365 23.915 198.319 23.915 198.272 23.915C198.109 23.9617 197.957 23.915 197.817 23.775L197.642 23.6C197.549 23.4833 197.479 23.355 197.432 23.215C197.385 23.075 197.327 22.9467 197.257 22.83V22.795C197.14 22.725 197.035 22.6083 196.942 22.445C196.942 22.4217 196.93 22.41 196.907 22.41C196.907 22.3867 196.907 22.3633 196.907 22.34C196.907 22.3167 196.895 22.2933 196.872 22.27C196.872 22.2467 196.872 22.2233 196.872 22.2V22.165C196.849 22.0017 196.837 21.8383 196.837 21.675C196.86 21.5117 196.872 21.36 196.872 21.22V19.435C196.872 19.225 196.86 19.0033 196.837 18.77C196.814 18.5133 196.825 18.28 196.872 18.07C196.919 17.86 196.977 17.7083 197.047 17.615C197.094 17.5683 197.117 17.545 197.117 17.545C197.304 17.335 197.537 17.23 197.817 17.23H201.562C201.445 17.1833 201.329 17.125 201.212 17.055C201.095 16.985 200.99 16.9267 200.897 16.88C200.594 16.6933 200.29 16.53 199.987 16.39C199.684 16.2267 199.415 16.005 199.182 15.725L198.972 15.48C198.949 15.4567 198.925 15.4333 198.902 15.41C198.902 15.3867 198.89 15.3633 198.867 15.34L198.762 15.235C198.692 15.1417 198.622 15.0483 198.552 14.955C198.482 14.8617 198.4 14.7683 198.307 14.675L198.097 14.5L197.852 14.745C197.829 14.7217 197.817 14.6867 197.817 14.64C197.747 14.6633 197.677 14.6867 197.607 14.71C197.56 14.71 197.514 14.6867 197.467 14.64C197.49 14.8033 197.502 14.9783 197.502 15.165C197.525 15.3517 197.467 15.445 197.327 15.445C197.164 15.445 197.105 15.305 197.152 15.025C197.222 14.745 197.234 14.5233 197.187 14.36C197.187 14.3367 197.164 14.325 197.117 14.325C197.094 14.3017 197.07 14.3133 197.047 14.36C197.024 14.5233 197.012 14.71 197.012 14.92C197.012 15.1067 196.977 15.2933 196.907 15.48C196.884 15.5033 196.86 15.48 196.837 15.41C196.814 15.34 196.79 15.2817 196.767 15.235L196.627 14.885C196.604 14.815 196.58 14.745 196.557 14.675C196.534 14.5817 196.51 14.4883 196.487 14.395C196.417 14.465 196.347 14.5233 196.277 14.57C196.23 14.6167 196.149 14.6517 196.032 14.675C196.009 14.6983 195.95 14.7217 195.857 14.745C195.764 14.745 195.694 14.7333 195.647 14.71C195.647 14.71 195.635 14.71 195.612 14.71C195.612 14.71 195.612 14.6983 195.612 14.675C195.565 14.6283 195.542 14.5817 195.542 14.535C195.542 14.4883 195.53 14.4533 195.507 14.43C195.507 14.3833 195.507 14.3483 195.507 14.325C195.414 14.325 195.332 14.3367 195.262 14.36C195.169 14.5233 195.134 14.6283 195.157 14.675C195.204 14.6983 195.157 14.7917 195.017 14.955C194.877 15.1183 194.76 15.1067 194.667 14.92C194.597 14.7333 194.515 14.6283 194.422 14.605C194.422 14.605 194.387 14.64 194.317 14.71L194.282 14.745L194.107 14.955C194.084 14.9783 194.072 15.0017 194.072 15.025C194.072 15.0483 194.06 15.0717 194.037 15.095C193.874 15.3983 193.769 15.725 193.722 16.075C193.675 16.4017 193.652 16.7283 193.652 17.055C193.652 17.1717 193.64 17.3233 193.617 17.51C193.617 17.6733 193.617 17.8483 193.617 18.035V20.975C193.617 21.2083 193.617 21.43 193.617 21.64C193.617 21.8267 193.629 21.99 193.652 22.13C193.652 22.2933 193.652 22.4567 193.652 22.62C193.652 22.76 193.664 22.9117 193.687 23.075C193.734 23.3083 193.792 23.5533 193.862 23.81C193.932 24.0433 194.037 24.265 194.177 24.475C194.364 24.7783 194.609 25.0117 194.912 25.175C195.215 25.3383 195.53 25.4433 195.857 25.49C195.95 25.49 196.032 25.5017 196.102 25.525C196.195 25.525 196.289 25.525 196.382 25.525ZM197.782 34.905C197.875 34.9283 197.934 35.0683 197.957 35.325C197.98 35.5817 197.98 35.8733 197.957 36.2C197.934 35.9667 197.899 35.745 197.852 35.535C197.829 35.325 197.805 35.115 197.782 34.905ZM197.467 39.07C197.514 39.3033 197.514 39.315 197.467 39.105C197.42 38.9183 197.362 38.6033 197.292 38.16C197.245 37.74 197.21 37.2733 197.187 36.76C197.187 36.27 197.245 35.85 197.362 35.5C197.339 36.2 197.327 36.8883 197.327 37.565C197.327 38.2417 197.374 38.7433 197.467 39.07ZM197.747 38.79C197.7 39 197.689 38.9767 197.712 38.72C197.759 38.4633 197.805 38.09 197.852 37.6C197.922 37.11 197.957 36.6433 197.957 36.2C198.05 36.7133 198.097 37.2033 198.097 37.67C198.12 38.16 198.004 38.5333 197.747 38.79Z" fill="#484A47"/>
</svg>
